<?xml version="1.0" encoding="utf-8"?>
<!-- Generator: Adobe Illustrator 22.0.0, SVG Export Plug-In . SVG Version: 6.00 Build 0)  -->
<svg version="1.1" xmlns="http://www.w3.org/2000/svg" xmlns:xlink="http://www.w3.org/1999/xlink" x="0px" y="0px"
	 viewBox="0 0 61.9 34.5" style="enable-background:new 0 0 61.9 34.5;" xml:space="preserve">
<style type="text/css">
	.st0{display:none;}
	
		.st1{fill-rule:evenodd;clip-rule:evenodd;fill:url(#SVGID_1_);stroke:#003F5A;stroke-width:1.4174;stroke-linecap:round;stroke-linejoin:round;stroke-miterlimit:2.4142;}
	
		.st2{fill-rule:evenodd;clip-rule:evenodd;fill:url(#SVGID_2_);stroke:#EF7D00;stroke-width:1.4174;stroke-linecap:round;stroke-linejoin:round;stroke-miterlimit:2.4142;}
	
		.st3{fill-rule:evenodd;clip-rule:evenodd;fill:url(#SVGID_3_);stroke:#003F16;stroke-width:1.4174;stroke-linecap:round;stroke-linejoin:round;stroke-miterlimit:2.4142;}
	.st4{clip-path:url(#SVGID_5_);fill-rule:evenodd;clip-rule:evenodd;fill:url(#SVGID_6_);}
	.st5{clip-path:url(#SVGID_5_);fill-rule:evenodd;clip-rule:evenodd;fill:url(#SVGID_7_);}
	.st6{clip-path:url(#SVGID_5_);fill-rule:evenodd;clip-rule:evenodd;}
	.st7{clip-path:url(#SVGID_5_);fill-rule:evenodd;clip-rule:evenodd;fill:url(#SVGID_8_);}
	.st8{fill-rule:evenodd;clip-rule:evenodd;fill:url(#SVGID_9_);}
	.st9{fill-rule:evenodd;clip-rule:evenodd;fill:url(#SVGID_10_);}
	.st10{fill-rule:evenodd;clip-rule:evenodd;fill:url(#SVGID_11_);}
	.st11{fill-rule:evenodd;clip-rule:evenodd;fill:#C6C6C6;}
	.st12{fill-rule:evenodd;clip-rule:evenodd;fill:url(#SVGID_12_);}
	.st13{fill-rule:evenodd;clip-rule:evenodd;fill:url(#SVGID_13_);}
	.st14{fill-rule:evenodd;clip-rule:evenodd;fill:url(#SVGID_14_);}
	.st15{fill:#1285AD;stroke:#000000;stroke-width:2;stroke-miterlimit:10;}
	.st16{font-family:'BaskOldFace';}
	.st17{font-size:21.1042px;}
	.st18{fill:#1285AD;}
</style>
<g id="Grid">
</g>
<g id="Layer_1" class="st0">
</g>
<g id="Desktop" class="st0">
</g>
<g id="Guides" class="st0">
</g>
<g id="Page_1">
	<g id="Layer_1_1_">
		<g>
			
				<linearGradient id="SVGID_1_" gradientUnits="userSpaceOnUse" x1="-247.7534" y1="232.0704" x2="-247.7534" y2="227.0197" gradientTransform="matrix(2.1524 0 0 2.1524 579.2092 -476.4161)">
				<stop  offset="0" style="stop-color:#00628B"/>
				<stop  offset="1" style="stop-color:#009FE3"/>
			</linearGradient>
			<path class="st1" d="M46.9,15.3h-1.8v7.8h1.8V15.3L46.9,15.3z M45.9,14.3c-0.6,0-1-0.5-1-1c0-0.6,0.5-1,1-1s1,0.5,1,1
				C47,13.8,46.5,14.3,45.9,14.3L45.9,14.3z"/>
			
				<linearGradient id="SVGID_2_" gradientUnits="userSpaceOnUse" x1="-177.9986" y1="216.9668" x2="-177.9986" y2="213.337" gradientTransform="matrix(2.1524 0 0 2.1524 423.3726 -443.7654)">
				<stop  offset="0" style="stop-color:#F39200"/>
				<stop  offset="1" style="stop-color:#FFED00"/>
			</linearGradient>
			<path class="st2" d="M37.9,16l0.3,1l0.2-0.1l0.2-0.1l0.2-0.1l0.2-0.1l0.2,0l0.2,0l0.2,0h0.2l0.2,0l0.2,0l0.2,0l0.2,0l0.1,0
				l0.1,0.1l0.1,0.1l0.1,0.1l0.1,0.1l0.1,0.1l0.1,0.1l0,0.1l0,0.1l0,0.1l0,0.2l0,0.2l0,0.2v0.1l0,0l0,0l0,0.1h0v0l0,0l0,0l-0.1,0
				l-0.5,0l-0.2,0l-0.2,0l-0.2,0l-0.2,0l-0.2,0l-0.2,0l-0.2,0l-0.2,0.1L39,18.7l-0.2,0.1l-0.1,0.1l-0.1,0.1L38.4,19l-0.1,0.1
				l-0.1,0.1L38,19.3l-0.1,0.1l-0.2,0.2l-0.1,0.3l-0.1,0.3l0,0.1l0,0.2l0,0.3l0,0.3l0,0.2l0,0.2l0,0.1l0,0.1l0.1,0.2l0.1,0.2
				l0.1,0.2l0.1,0.2l0.1,0.2l0.1,0.2l0.2,0.1l0.2,0.1l0.2,0.1l0.2,0.1l0.2,0.1l0.2,0l0.2,0l0.1,0l0.2,0l0.1,0l0.1,0l0.1,0l0.1,0
				l0.1,0l0.1,0l0.1,0l0.1,0l0.1-0.1l0.1-0.1l0,0l0.1,0l0.1-0.1l0.1-0.1l0.1-0.1l0.1-0.1l0.1-0.1l0,0l0,0l0,0h0.1l0.1,0l0.1,0l0,0.1
				l0,0.1l0.1,0.7h1.3l0-0.2l0-0.2l0-0.2l0-0.2l0-0.2l0-0.2v-3.3l0-0.2l0-0.2l0-0.2l0-0.2l0-0.2l0-0.2l0-0.2l0-0.1l0-0.1l0-0.1
				l-0.1-0.1l-0.1-0.1l-0.1-0.1l-0.1-0.1l-0.1-0.1l-0.1-0.1l-0.1-0.1L42.2,16l-0.1-0.1L42,15.9l-0.1-0.1l-0.1-0.1l-0.2-0.1l-0.1,0
				l-0.1,0l-0.1,0l-0.1,0l-0.2,0l-0.2,0l-0.3,0h-0.3l-0.3,0l-0.3,0L39,15.6l-0.3,0.1l-0.3,0.1l-0.3,0.1L37.9,16L37.9,16L37.9,16z
				 M39.5,19.6l0.2-0.1l0.2-0.1l0.2-0.1l0.2,0l0.2,0l0.3,0l0.3,0l0.3,0l0,0l0,0l0,0l0,0l0,0l0,0l0,0v1.1l0,0.1v0.1l0,0.1l0,0.1l0,0
				v0l0,0l0,0v0l0,0.1l0,0.1l0,0.1l-0.1,0.1l-0.1,0.1l-0.1,0.1l0,0l0,0.1L41,21.7l0,0l0,0l-0.1,0.1l-0.1,0.1l-0.1,0l0,0l0,0l-0.1,0
				l-0.1,0l-0.1,0l-0.1,0h-0.1l0,0l-0.1,0l-0.1,0l-0.1,0l-0.1,0l-0.1,0l-0.1-0.1l-0.1-0.1l-0.1-0.1l-0.1-0.1L39,21.6L39,21.5l0-0.1
				l0-0.1l0-0.1l0-0.1v-0.1l0-0.2l0-0.2l0-0.2l0.1-0.2l0.1-0.2l0.1-0.1l0.1-0.1l0.1-0.1L39.5,19.6L39.5,19.6L39.5,19.6z"/>
			
				<linearGradient id="SVGID_3_" gradientUnits="userSpaceOnUse" x1="-173.6466" y1="211.4654" x2="-173.6466" y2="216.9016" gradientTransform="matrix(2.1524 0 0 2.1524 423.3726 -443.7654)">
				<stop  offset="0" style="stop-color:#009640"/>
				<stop  offset="1" style="stop-color:#005F27"/>
			</linearGradient>
			<polygon class="st3" points="50.4,11.4 48.8,11.4 48.8,23.1 50.4,23.1 50.4,11.4 			"/>
			<g>
				<defs>
					<path id="SVGID_4_" d="M25.4,15.3h10c0.1,0,0.1,0,0.1,0.1v7.4c0,0.1,0,0.1-0.1,0.1h-10c-0.1,0-0.1,0-0.1-0.1v-7.4
						C25.3,15.4,25.3,15.3,25.4,15.3L25.4,15.3z"/>
				</defs>
				<clipPath id="SVGID_5_">
					<use xlink:href="#SVGID_4_"  style="overflow:visible;"/>
				</clipPath>
				
					<linearGradient id="SVGID_6_" gradientUnits="userSpaceOnUse" x1="-159.7122" y1="241.0605" x2="-159.7122" y2="244.6023" gradientTransform="matrix(2.1524 0 0 -2.1524 374.1473 541.798)">
					<stop  offset="0" style="stop-color:#FFFFFF"/>
					<stop  offset="1" style="stop-color:#EDEDED"/>
				</linearGradient>
				<polygon class="st4" points="25.3,22.9 35.5,22.9 35.5,15.3 25.3,15.3 25.3,22.9 				"/>
				
					<linearGradient id="SVGID_7_" gradientUnits="userSpaceOnUse" x1="-182.5819" y1="213.2803" x2="-182.5819" y2="216.8222" gradientTransform="matrix(2.1524 0 0 2.1524 423.3726 -443.7654)">
					<stop  offset="0" style="stop-color:#E30613"/>
					<stop  offset="1" style="stop-color:#5C0A00"/>
				</linearGradient>
				<path class="st5" d="M35.5,22.9v-7.6H25.3v7.6H35.5L35.5,22.9z M34,21.4v1.5h-7.2v-1.4l2.7-2.2l0.8,0.7l0.7-0.6L34,21.4L34,21.4
					z M34,21.1l-2.7-1.9l2.7-2.3V21.1L34,21.1z M33.6,15.4l-3.2,3.1l-3.1-3.1L33.6,15.4L33.6,15.4z M29.4,19.1l-2.6,2.1l0-4.3
					L29.4,19.1L29.4,19.1z"/>
				<polygon class="st6" points="35.5,15.3 33.6,15.3 30.4,18.8 27.2,15.3 25.3,15.3 30.4,20.5 35.5,15.3 				"/>
				
					<radialGradient id="SVGID_8_" cx="-204.7668" cy="225.0901" r="2.467" gradientTransform="matrix(2.1524 0 0 2.1524 470.9204 -464.8137)" gradientUnits="userSpaceOnUse">
					<stop  offset="0" style="stop-color:#8A1002"/>
					<stop  offset="1" style="stop-color:#E30613"/>
				</radialGradient>
				<polygon class="st7" points="35.5,15.3 33.6,15.3 30.4,18.4 27.2,15.3 25.3,15.3 30.4,20 35.5,15.3 				"/>
			</g>
			
				<linearGradient id="SVGID_9_" gradientUnits="userSpaceOnUse" x1="-322.6748" y1="90.0704" x2="-322.6748" y2="95.318" gradientTransform="matrix(1 0 0 1 368.6973 -65.8868)">
				<stop  offset="0" style="stop-color:#00628B"/>
				<stop  offset="1" style="stop-color:#009FE3"/>
			</linearGradient>
			<polygon class="st8" points="45.1,29.4 45.1,24.2 46.9,24.2 46.9,29.4 45.1,29.4 			"/>
			
				<linearGradient id="SVGID_10_" gradientUnits="userSpaceOnUse" x1="-242.9624" y1="96.0621" x2="-242.9624" y2="101.4502" gradientTransform="matrix(1 0 0 1 283.2046 -72.019)">
				<stop  offset="0" style="stop-color:#F39200"/>
				<stop  offset="1" style="stop-color:#FFED00"/>
			</linearGradient>
			<path class="st9" d="M41.5,29.4l0-0.1v-0.1l0,0l0,0l0-0.1h0v0l0,0l0,0l-0.1,0l-0.5,0l-0.2,0l-0.2,0l-0.2,0l-0.2,0l-0.2,0l-0.2,0
				l-0.2,0l-0.2-0.1L39,28.6l-0.2-0.1l-0.1-0.1l-0.1-0.1l-0.1-0.1l-0.1-0.1l-0.1-0.1L38,28l-0.1-0.1l-0.2-0.2l-0.1-0.3l-0.1-0.3
				l0-0.1l0-0.2l0-0.3l0-0.3l0-0.2l0-0.2l0-0.1l0-0.1l0.1-0.2l0.1-0.2l0.1-0.2l0.1-0.2l0.1-0.2l0.1-0.2l0.2-0.1l0.2-0.1l0.2-0.1
				l0.2-0.1l0.2-0.1l0.2,0l0.2,0l0.1,0l0.2,0l0.1,0l0.1,0l0.1,0l0.1,0l0.1,0l0.1,0l0.1,0l0.1,0l0.1,0.1l0.1,0.1l0,0l0.1,0l0.1,0.1
				l0.1,0.1l0.1,0.1l0.1,0.1l0.1,0.1l0,0l0,0l0,0h0.1l0.1,0l0.1,0l0-0.1l0-0.1l0.1-0.7h1.3l0,0.2l0,0.2l0,0.2l0,0.2l0,0.2l0,0.2v3.3
				l0,0.2l0,0.2l0,0.2l0,0.1H41.5L41.5,29.4z M39.5,27.7l0.2,0.1l0.2,0.1l0.2,0.1l0.2,0l0.2,0l0.3,0l0.3,0l0.3,0l0,0l0,0l0,0l0,0
				l0,0l0,0l0,0v-1.1l0-0.1v-0.1l0-0.1l0-0.1l0,0v0l0,0l0,0v0l0-0.1l0-0.1l0-0.1L41.3,26l-0.1-0.1l-0.1-0.1l0,0l0-0.1L41,25.6l0,0
				l0,0l-0.1-0.1l-0.1-0.1l-0.1,0l0,0l0,0l-0.1,0l-0.1,0l-0.1,0l-0.1,0h-0.1l0,0l-0.1,0l-0.1,0l-0.1,0l-0.1,0l-0.1,0l-0.1,0.1
				l-0.1,0.1l-0.1,0.1l-0.1,0.1L39,25.7L39,25.8l0,0.1l0,0.1l0,0.1l0,0.1v0.1l0,0.2l0,0.2l0,0.2l0.1,0.2l0.1,0.2l0.1,0.1l0.1,0.1
				l0.1,0.1L39.5,27.7L39.5,27.7L39.5,27.7z"/>
			
				<linearGradient id="SVGID_11_" gradientUnits="userSpaceOnUse" x1="-337.2198" y1="95.0484" x2="-337.2198" y2="89.8008" gradientTransform="matrix(1 0 0 1 386.8293 -65.6172)">
				<stop  offset="0" style="stop-color:#009640"/>
				<stop  offset="1" style="stop-color:#005F27"/>
			</linearGradient>
			<polygon class="st10" points="48.8,29.4 48.8,24.2 50.4,24.2 50.4,29.4 48.8,29.4 			"/>
			<path class="st11" d="M35.5,29.4v-5c0-0.1,0-0.1-0.1-0.1h-10c-0.1,0-0.1,0-0.1,0.1v5H35.5L35.5,29.4z"/>
			
				<linearGradient id="SVGID_12_" gradientUnits="userSpaceOnUse" x1="-133.2585" y1="167.1601" x2="-133.2585" y2="162.0833" gradientTransform="matrix(1 0 0 1 163.6353 -137.7289)">
				<stop  offset="0" style="stop-color:#FFFFFF"/>
				<stop  offset="1" style="stop-color:#EDEDED"/>
			</linearGradient>
			<polygon class="st12" points="25.3,24.4 35.5,24.4 35.5,29.4 25.3,29.4 25.3,24.4 			"/>
			
				<linearGradient id="SVGID_13_" gradientUnits="userSpaceOnUse" x1="-230.0318" y1="167.1599" x2="-230.0318" y2="162.0831" gradientTransform="matrix(1 0 0 1 260.4087 -137.7286)">
				<stop  offset="0" style="stop-color:#E30613"/>
				<stop  offset="1" style="stop-color:#5C0A00"/>
			</linearGradient>
			<path class="st13" d="M35.5,24.4v5.1H34v-3.3l-2.7,1.9l1.6,1.3H31l-0.6-0.6l-0.6,0.6h-1.8l1.5-1.3l-2.6-2.1l0,3.3h-1.6v-5.1H35.5
				L35.5,24.4z M34,25.9v-1.5h-7.2v1.4l2.7,2.2l0.8-0.7l0.7,0.6L34,25.9L34,25.9z"/>
			
				<radialGradient id="SVGID_14_" cx="-212.5195" cy="94.9222" r="2.4024" gradientTransform="matrix(1 0 0 1 242.8189 -65.6172)" gradientUnits="userSpaceOnUse">
				<stop  offset="0" style="stop-color:#8A1002"/>
				<stop  offset="1" style="stop-color:#E30613"/>
			</radialGradient>
			<polygon class="st14" points="31,29.4 30.4,28.8 29.8,29.4 28.1,29.4 30.4,27.3 32.7,29.4 31,29.4 			"/>
			<text transform="matrix(1 0 0 1 10.5983 23.2416)" class="st15 st16 st17">B</text>
			<g>
				<path class="st18" d="M12.7,25c0.2,0.2,0.4,0.5,0.4,0.8c0.1,0.3,0.1,0.9,0.1,1.6v1.7c0.8,0,1.5,0,2.3-0.1v-1.8
					c0-0.5,0-0.9,0.1-1.2c0.1-0.3,0.2-0.6,0.4-0.8c0.4-0.5,1-0.7,1.8-0.7c1.1,0,2,0.3,2.6,0.9c0.6,0.6,1,1.4,1,2.5
					c0,0.3,0,0.6-0.1,1c0.8,0,1.7,0,2.5,0c0.1-0.3,0.1-0.6,0.1-0.9c0-0.6-0.1-1.2-0.4-1.7c-0.3-0.5-0.6-0.9-1-1.3
					c-0.4-0.3-0.9-0.5-1.4-0.6c-0.6-0.1-1.3-0.2-2.4-0.2h-7.5v0.2c0.4,0,0.7,0.1,1,0.2C12.3,24.7,12.5,24.8,12.7,25z"/>
			</g>
		</g>
	</g>
</g>
</svg>
