<?xml version="1.0" encoding="utf-8"?>
<!-- Generator: Adobe Illustrator 22.0.0, SVG Export Plug-In . SVG Version: 6.00 Build 0)  -->
<svg version="1.1" xmlns="http://www.w3.org/2000/svg" xmlns:xlink="http://www.w3.org/1999/xlink" x="0px" y="0px"
	 viewBox="0 0 425.2 368.5" style="enable-background:new 0 0 425.2 368.5;" xml:space="preserve">
<style type="text/css">
	.st0{display:none;}
	
		.st1{fill-rule:evenodd;clip-rule:evenodd;fill:url(#SVGID_1_);stroke:#003F5A;stroke-width:1.4174;stroke-linecap:round;stroke-linejoin:round;stroke-miterlimit:2.4142;}
	
		.st2{fill-rule:evenodd;clip-rule:evenodd;fill:url(#SVGID_2_);stroke:#EF7D00;stroke-width:1.4174;stroke-linecap:round;stroke-linejoin:round;stroke-miterlimit:2.4142;}
	
		.st3{fill-rule:evenodd;clip-rule:evenodd;fill:url(#SVGID_3_);stroke:#003F16;stroke-width:1.4174;stroke-linecap:round;stroke-linejoin:round;stroke-miterlimit:2.4142;}
	.st4{clip-path:url(#SVGID_5_);fill-rule:evenodd;clip-rule:evenodd;fill:url(#SVGID_6_);}
	.st5{clip-path:url(#SVGID_5_);fill-rule:evenodd;clip-rule:evenodd;fill:url(#SVGID_7_);}
	.st6{clip-path:url(#SVGID_5_);fill-rule:evenodd;clip-rule:evenodd;}
	.st7{clip-path:url(#SVGID_5_);fill-rule:evenodd;clip-rule:evenodd;fill:url(#SVGID_8_);}
	.st8{fill-rule:evenodd;clip-rule:evenodd;fill:url(#SVGID_9_);}
	.st9{fill-rule:evenodd;clip-rule:evenodd;fill:url(#SVGID_10_);}
	.st10{fill-rule:evenodd;clip-rule:evenodd;fill:url(#SVGID_11_);}
	.st11{fill-rule:evenodd;clip-rule:evenodd;fill:#C6C6C6;}
	.st12{fill-rule:evenodd;clip-rule:evenodd;fill:url(#SVGID_12_);}
	.st13{fill-rule:evenodd;clip-rule:evenodd;fill:url(#SVGID_13_);}
	.st14{fill-rule:evenodd;clip-rule:evenodd;fill:url(#SVGID_14_);}
	.st15{fill:#1285AD;stroke:#000000;stroke-width:2;stroke-miterlimit:10;}
	.st16{font-family:'BaskOldFace';}
	.st17{font-size:200px;}
	.st18{fill:#1285AD;}
</style>
<g id="Grid">
</g>
<g id="Layer_1" class="st0">
</g>
<g id="Desktop" class="st0">
</g>
<g id="Guides" class="st0">
</g>
<g id="Page_1">
	<g id="Layer_1_1_">
		<g>
			
				<linearGradient id="SVGID_1_" gradientUnits="userSpaceOnUse" x1="-4.2877" y1="402.6331" x2="-4.2877" y2="354.7684" gradientTransform="matrix(2.1524 0 0 2.1524 368.6973 -647.7452)">
				<stop  offset="0" style="stop-color:#00628B"/>
				<stop  offset="1" style="stop-color:#009FE3"/>
			</linearGradient>
			<path class="st1" d="M368.7,145.4h-16.8v73.5h16.8V145.4L368.7,145.4z M359.5,135.4c-5.4,0-9.8-4.4-9.8-9.8s4.4-9.8,9.8-9.8
				c5.4,0,9.8,4.4,9.8,9.8S364.9,135.4,359.5,135.4L359.5,135.4z"/>
			
				<linearGradient id="SVGID_2_" gradientUnits="userSpaceOnUse" x1="43.0455" y1="388.0826" x2="43.0455" y2="353.6838" gradientTransform="matrix(2.1524 0 0 2.1524 212.8612 -615.0939)">
				<stop  offset="0" style="stop-color:#F39200"/>
				<stop  offset="1" style="stop-color:#FFED00"/>
			</linearGradient>
			<path class="st2" d="M283.2,151.6l2.7,9.3l1.8-1.1l2-0.9l2-0.8l2.1-0.6l2.1-0.5l2.2-0.3l2.2-0.2h2.4l1.7-0.1l1.7,0.2l1.4,0.2
				l1.4,0.4l1.3,0.4l1.2,0.6l1.1,0.8l1,0.9l0.9,0.9l0.7,1l0.6,1.1l0.2,0.6l0.3,0.7l0.4,1.3l0.3,1.4l0.2,1.6l0.1,1.8v1.3l-0.1,0.2
				l-0.1,0.3l-0.3,0.7h-0.2v0.1l-0.1,0.1l-0.2,0.2l-0.6,0.1l-4.4,0.1l-2.1,0.1l-2,0.2l-2,0.2l-1.8,0.3l-1.8,0.3l-1.7,0.5l-1.7,0.4
				l-1.6,0.5l-3.1,1.2l-1.5,0.6l-1.4,0.8l-1.4,0.8l-1.2,0.9l-1.2,0.8l-1.1,0.9l-1,0.9l-0.9,1l-1.7,2.1l-1.3,2.4l-1.1,2.5l-0.4,1.3
				l-0.3,1.4l-0.5,2.9l-0.1,3.2l0.1,2l0.2,2l0.1,0.9l0.2,1l0.6,1.9l0.6,1.7l0.9,1.7l1,1.6l1.2,1.5l1.4,1.4l1.6,1.3l1.7,1l1.8,0.9
				l1.8,0.7l2,0.5l2,0.3l2.2,0.2l1.4-0.1l1.4-0.1l0.6-0.1l0.7-0.1l1.4-0.2l1.2-0.3l1.3-0.4l1.1-0.5l0.6-0.3l0.6-0.2l1-0.6l1.1-0.7
				l0.5-0.4l0.5-0.3l1-0.8l0.9-0.9l0.9-0.9l0.9-1l0.9-1l0.2-0.3l0.3-0.2l0.3-0.1h0.7l0.6,0.1l0.6,0.2l0.2,0.5l0.2,0.6l1.1,6.7h12.7
				l-0.2-1.7l-0.2-1.7l-0.1-1.9l-0.1-1.9l-0.1-2.1l-0.1-2.2v-31.2l-0.1-1.9l-0.1-1.8l-0.2-1.7l-0.1-1.6l-0.3-1.7l-0.2-1.5l-0.3-1.5
				l-0.3-1.4l-0.5-1.4l-0.5-1.3l-0.6-1.3l-0.5-1.2l-0.6-1.2l-0.6-1l-0.7-1l-0.7-0.9l-0.9-0.9l-0.9-0.8l-1-0.8l-1-0.7l-1.1-0.7
				l-1.1-0.6l-2.4-1l-1.3-0.5l-1.3-0.3l-1.4-0.3l-1.4-0.2l-1.5-0.2l-1.5-0.1l-3.2-0.1h-3.3l-3.2,0.2l-3.1,0.3l-2.8,0.6l-2.8,0.8
				l-2.6,1l-2.5,1.1L283.2,151.6L283.2,151.6L283.2,151.6z M298.9,185.9l1.4-0.9l1.7-0.8l1.8-0.6l2.1-0.5l2.2-0.4l2.5-0.2l2.6-0.1
				l2.9,0.1l0.2-0.1l0.3,0.1l0.2,0.2l0.3,0.3l0.3,0.4l0.1,0.3l0.1,0.4v10.1l-0.1,0.6v0.6l-0.1,1.2l-0.1,0.5l-0.1,0.2v0.3l-0.1,0.5
				l-0.1,0.2v0.3l-0.2,0.5l-0.2,0.6l-0.5,1.2l-0.5,1l-0.6,1l-0.7,0.9l-0.4,0.5l-0.3,0.5l-0.8,0.9l-0.5,0.4l-0.4,0.5l-1,0.6l-1,0.6
				l-0.6,0.2l-0.3,0.1l-0.2,0.2l-1,0.5l-1.2,0.3l-1.1,0.2l-1.2,0.2h-0.9l-0.2,0.1l-1.4-0.1l-1.2-0.2l-1.2-0.2l-1-0.3l-1-0.5
				l-0.9-0.5l-0.8-0.6l-0.7-0.6l-0.7-0.9l-0.5-0.9l-0.5-1l-0.3-1l-0.3-1.2l-0.2-1.3l-0.1-1.3v-1.4l0.1-2l0.3-1.8l0.5-1.7l0.7-1.5
				l0.9-1.4l1.1-1.2l0.6-0.6l0.7-0.5L298.9,185.9L298.9,185.9L298.9,185.9z"/>
			
				<linearGradient id="SVGID_3_" gradientUnits="userSpaceOnUse" x1="84.288" y1="335.9469" x2="84.288" y2="387.4643" gradientTransform="matrix(2.1524 0 0 2.1524 212.8612 -615.0939)">
				<stop  offset="0" style="stop-color:#009640"/>
				<stop  offset="1" style="stop-color:#005F27"/>
			</linearGradient>
			<polygon class="st3" points="401.7,108 386.8,108 386.8,218.9 401.7,218.9 401.7,108 			"/>
			<g>
				<defs>
					<path id="SVGID_4_" d="M164.7,145h94.7c0.6,0,1,0.5,1,1v70.2c0,0.6-0.5,1-1,1h-94.7c-0.6,0-1-0.5-1-1v-70.2
						C163.6,145.5,164.1,145,164.7,145L164.7,145z"/>
				</defs>
				<clipPath id="SVGID_5_">
					<use xlink:href="#SVGID_4_"  style="overflow:visible;"/>
				</clipPath>
				
					<linearGradient id="SVGID_6_" gradientUnits="userSpaceOnUse" x1="22.4799" y1="368.5039" x2="22.4799" y2="402.0687" gradientTransform="matrix(2.1524 0 0 -2.1524 163.6354 1010.4604)">
					<stop  offset="0" style="stop-color:#FFFFFF"/>
					<stop  offset="1" style="stop-color:#EDEDED"/>
				</linearGradient>
				<polygon class="st4" points="163.6,217.3 260.4,217.3 260.4,145 163.6,145 163.6,217.3 				"/>
				
					<linearGradient id="SVGID_7_" gradientUnits="userSpaceOnUse" x1="-0.3899" y1="353.147" x2="-0.3899" y2="386.712" gradientTransform="matrix(2.1524 0 0 2.1524 212.8612 -615.0939)">
					<stop  offset="0" style="stop-color:#E30613"/>
					<stop  offset="1" style="stop-color:#5C0A00"/>
				</linearGradient>
				<path class="st5" d="M260.4,217.3V145h-96.8v72.2H260.4L260.4,217.3z M246.5,202.5v14.1h-67.9v-13.3l26-20.7l7.7,6.5l7-5.9
					L246.5,202.5L246.5,202.5z M246.5,200l-25.8-18.1l25.8-21.9V200L246.5,200z M242.2,145.8l-30.3,29l-29.2-29.1L242.2,145.8
					L242.2,145.8z M203.1,181.3l-24.5,19.6l0.1-40.3L203.1,181.3L203.1,181.3z"/>
				<polygon class="st6" points="260.4,145 243,145 211.9,178.5 182.1,145 163.6,145 212.3,194.6 260.4,145 				"/>
				
					<radialGradient id="SVGID_8_" cx="-23.3791" cy="382.1745" r="23.3791" gradientTransform="matrix(2.1524 0 0 2.1524 260.4084 -636.1428)" gradientUnits="userSpaceOnUse">
					<stop  offset="0" style="stop-color:#8A1002"/>
					<stop  offset="1" style="stop-color:#E30613"/>
				</radialGradient>
				<polygon class="st7" points="260.4,145 243,145 211.9,174.8 182.1,145 163.6,145 212.3,189.1 260.4,145 				"/>
			</g>
			
				<linearGradient id="SVGID_9_" gradientUnits="userSpaceOnUse" x1="-8.4061" y1="295.0432" x2="-8.4061" y2="344.7737" gradientTransform="matrix(1 0 0 1 368.6973 -65.8868)">
				<stop  offset="0" style="stop-color:#00628B"/>
				<stop  offset="1" style="stop-color:#009FE3"/>
			</linearGradient>
			<polygon class="st8" points="351.9,278.9 351.9,229.2 368.7,229.2 368.7,278.9 351.9,278.9 			"/>
			
				<linearGradient id="SVGID_10_" gradientUnits="userSpaceOnUse" x1="22.3092" y1="299.8443" x2="22.3092" y2="350.9059" gradientTransform="matrix(1 0 0 1 283.2046 -72.019)">
				<stop  offset="0" style="stop-color:#F39200"/>
				<stop  offset="1" style="stop-color:#FFED00"/>
			</linearGradient>
			<path class="st9" d="M317.1,278.9l0-1.1v-1.3l-0.1-0.2L317,276l-0.3-0.7h-0.2v-0.1l-0.1-0.1l-0.2-0.2l-0.6-0.1l-4.4-0.1l-2.1-0.1
				l-2-0.2l-2-0.2l-1.8-0.3l-1.8-0.3l-1.7-0.5l-1.7-0.4l-1.6-0.5l-3.1-1.2l-1.5-0.6l-1.4-0.8l-1.4-0.8l-1.2-0.9l-1.2-0.8l-1.1-0.9
				l-1-0.9l-0.9-1l-1.7-2.1l-1.3-2.4l-1.1-2.5l-0.4-1.3l-0.3-1.4l-0.5-2.9l-0.1-3.2l0.1-2l0.2-2l0.1-0.9l0.2-1l0.6-1.9l0.6-1.7
				l0.9-1.7l1-1.6l1.2-1.5l1.4-1.4l1.6-1.3l1.7-1l1.8-0.9l1.8-0.7l2-0.5l2-0.3l2.2-0.2l1.4,0.1l1.4,0.1l0.6,0.1l0.7,0.1l1.4,0.2
				l1.2,0.3l1.3,0.4l1.1,0.5l0.6,0.3l0.6,0.2l1,0.6l1.1,0.7l0.5,0.4l0.5,0.3l1,0.8l0.9,0.9l0.9,0.9l0.9,1l0.9,1l0.2,0.3l0.3,0.2
				l0.3,0.1h0.7l0.6-0.1l0.6-0.2l0.2-0.5l0.2-0.6l1.1-6.7h12.7l-0.2,1.7l-0.2,1.7l-0.1,1.9l-0.1,1.9l-0.1,2.1l-0.1,2.2v31.2
				l-0.1,1.9l-0.1,1.8l-0.2,1.7l-0.1,1.2H317.1L317.1,278.9z M298.9,262.2l1.4,0.9l1.7,0.8l1.8,0.6l2.1,0.5l2.2,0.4l2.5,0.2l2.6,0.1
				l2.9-0.1l0.2,0.1l0.3-0.1l0.2-0.2l0.3-0.3l0.3-0.4l0.1-0.3l0.1-0.4v-10.1l-0.1-0.6v-0.6l-0.1-1.2l-0.1-0.5l-0.1-0.2v-0.3
				l-0.1-0.5l-0.1-0.2v-0.3l-0.2-0.5l-0.2-0.6l-0.5-1.2l-0.5-1l-0.6-1l-0.7-0.9l-0.4-0.5l-0.3-0.5l-0.8-0.9l-0.5-0.4l-0.4-0.5
				l-1-0.6l-1-0.6l-0.6-0.2l-0.3-0.1l-0.2-0.2l-1-0.5l-1.2-0.3l-1.1-0.2l-1.2-0.2h-0.9l-0.2-0.1l-1.4,0.1l-1.2,0.2l-1.2,0.2l-1,0.3
				l-1,0.5l-0.9,0.5l-0.8,0.6l-0.7,0.6l-0.7,0.9l-0.5,0.9l-0.5,1l-0.3,1l-0.3,1.2l-0.2,1.3l-0.1,1.3v1.4l0.1,2l0.3,1.8l0.5,1.7
				l0.7,1.5l0.9,1.4l1.1,1.2l0.6,0.6l0.7,0.5L298.9,262.2L298.9,262.2L298.9,262.2z"/>
			
				<linearGradient id="SVGID_11_" gradientUnits="userSpaceOnUse" x1="7.4563" y1="344.5041" x2="7.4563" y2="294.7734" gradientTransform="matrix(1 0 0 1 386.8293 -65.6172)">
				<stop  offset="0" style="stop-color:#009640"/>
				<stop  offset="1" style="stop-color:#005F27"/>
			</linearGradient>
			<polygon class="st10" points="386.8,278.9 386.8,229.2 401.7,229.2 401.7,278.9 386.8,278.9 			"/>
			<path class="st11" d="M260.4,278.9v-47.1c0-0.6-0.5-1-1-1h-94.7c-0.6,0-1,0.5-1,1v47.1H260.4L260.4,278.9z"/>
			
				<linearGradient id="SVGID_12_" gradientUnits="userSpaceOnUse" x1="48.3866" y1="416.6158" x2="48.3866" y2="368.5039" gradientTransform="matrix(1 0 0 1 163.6353 -137.7289)">
				<stop  offset="0" style="stop-color:#FFFFFF"/>
				<stop  offset="1" style="stop-color:#EDEDED"/>
			</linearGradient>
			<polygon class="st12" points="163.6,230.8 260.4,230.8 260.4,278.9 163.6,278.9 163.6,230.8 			"/>
			
				<linearGradient id="SVGID_13_" gradientUnits="userSpaceOnUse" x1="-48.3868" y1="416.6155" x2="-48.3868" y2="368.5039" gradientTransform="matrix(1 0 0 1 260.4087 -137.7286)">
				<stop  offset="0" style="stop-color:#E30613"/>
				<stop  offset="1" style="stop-color:#5C0A00"/>
			</linearGradient>
			<path class="st13" d="M260.4,230.8v48.1h-13.9v-30.8l-25.8,18.1l15.1,12.8h-18l-5.8-5.6l-5.6,5.6h-17.5l14.3-12.1l-24.5-19.6
				l0,31.7h-15v-48.1H260.4L260.4,230.8z M246.5,245.6v-14.1h-67.9v13.3l26,20.7l7.7-6.5l7,5.9L246.5,245.6L246.5,245.6z"/>
			
				<radialGradient id="SVGID_14_" cx="-31.5309" cy="343.3076" r="22.7674" gradientTransform="matrix(1 0 0 1 242.8189 -65.6172)" gradientUnits="userSpaceOnUse">
				<stop  offset="0" style="stop-color:#8A1002"/>
				<stop  offset="1" style="stop-color:#E30613"/>
			</radialGradient>
			<polygon class="st14" points="217.8,278.9 211.9,273.3 206.3,278.9 190.3,278.9 212.3,258.9 234.1,278.9 217.8,278.9 			"/>
			<text transform="matrix(1 0 0 1 24.5861 220.2282)" class="st15 st16 st17">B</text>
			<g>
				<path class="st18" d="M44.6,237.1c2.1,2.1,3.5,4.7,4.2,7.9c0.7,3.2,1.1,8.1,1.1,14.8V276c7.1-0.2,14.3-0.4,21.4-0.7v-17.1
					c0-4.9,0.3-8.8,1-11.8c0.7-3,1.8-5.5,3.4-7.6c3.3-4.4,9-6.5,17.1-6.5c10.5,0,18.8,2.9,24.9,8.6c6.1,5.7,9.1,13.5,9.1,23.4
					c0,3.1-0.3,6.1-0.9,9c7.9-0.2,15.7-0.2,23.6,0c0.6-2.8,0.9-5.8,0.9-8.8c0-5.9-1.2-11.3-3.6-16.3c-2.4-4.9-5.7-8.9-9.9-11.9
					c-3.8-2.7-8.4-4.5-13.7-5.6c-5.3-1-12.8-1.6-22.4-1.6H29.4v2.2c3.8,0.2,6.8,0.7,9.1,1.6C40.8,233.9,42.8,235.2,44.6,237.1z"/>
			</g>
		</g>
	</g>
</g>
</svg>
